<?xml version="1.0" encoding="utf-8"?>
<!-- Generator: Adobe Illustrator 24.0.1, SVG Export Plug-In . SVG Version: 6.00 Build 0)  -->
<svg version="1.1" id="Layer_1" xmlns="http://www.w3.org/2000/svg" xmlns:xlink="http://www.w3.org/1999/xlink" x="0px" y="0px"
	 viewBox="0 0 22.4 25.6" style="enable-background:new 0 0 22.4 25.6;" xml:space="preserve">
<style type="text/css">
	.st0{fill:#FFC0CB;stroke:#F49AC1;stroke-width:0.25;stroke-miterlimit:10;}
	.st1{font-family:'Noteworthy-Light';}
	.st2{font-size:12px;}
	.st3{font-family:'SukhumvitSet-Light';}
	.st4{font-size:5px;}
	.st5{font-size:2.7755px;}
</style>
<path class="st0" d="M11.9,4.8c-0.2-0.1-0.5-0.1-0.8,0c-0.9,0.3-2,1.7-2.7,3.4c-0.5,1.2-0.9,2.5-0.9,3.5L4,13.4
	c-0.1,0-0.1,0.1-0.1,0.1c0,0,0,0,0,0l-3.7,8.3c-0.1,0.3,0,0.7,0.3,0.8l5.8,2.7c0.3,0.1,0.7,0,0.8-0.3l3.7-8.3c0,0,0,0,0,0
	c0,0,0-0.1,0-0.2l-1.1-3.8c0.7-0.6,1.4-1.7,2-3c0.5-1.1,0.8-2.2,0.8-3.1C12.6,5.7,12.4,5.1,11.9,4.8z M8.6,13.8
	c-0.1,0.3-0.5,0.4-0.8,0.3c-0.3-0.1-0.4-0.5-0.3-0.8C7.6,13.1,7.7,13,7.9,13c0.1,0.1,0.2,0.2,0.3,0.3c0.1,0.1,0.3,0.1,0.4,0.1
	C8.7,13.4,8.7,13.6,8.6,13.8z M12.1,6.7c-0.1,0.8-0.3,1.9-0.8,2.9c-0.5,1.1-1.1,2.1-1.7,2.6l-0.2-0.6c0-0.3-0.6-0.5-0.8-0.4L8,11.5
	c0,0,0-0.1,0-0.1c0.1-0.8,0.3-1.9,0.8-2.9c0.7-1.6,1.7-2.9,2.5-3.2c0.2-0.1,0.3-0.1,0.4,0C12,5.4,12.1,5.9,12.1,6.7z"/>
<text transform="matrix(1 0 0 1 1.9934 11.205)" class="st1 st2">p</text>
<text transform="matrix(1 0 0 1 12.8948 11.9585)" class="st1 st2">s</text>
<text transform="matrix(1 0 0 1 18.3345 11.9581)" class="st1 st2">t</text>
<text transform="matrix(0.659 0.295 -0.4086 0.9127 2.4377 21.3206)" class="st3 st4">|</text>
<text transform="matrix(1.1872 0.5315 -0.4086 0.9127 4.8332 16.1951)" class="st3 st5">|</text>
<text transform="matrix(0.659 0.295 -0.4086 0.9127 4.6813 20.6822)" class="st3 st4">|</text>
<text transform="matrix(1.1872 0.5315 -0.4086 0.9127 7.0843 19.1694)" class="st3 st5">|</text>
</svg>
