<svg id="Layer_1" data-name="Layer 1" xmlns="http://www.w3.org/2000/svg" viewBox="0 0 1148.37656 1439.94394"><defs><style>.cls-1{fill:pink;stroke:#f49ac1;stroke-miterlimit:10;stroke-width:0.25px;}.cls-2{isolation:isolate;}</style></defs><title>Artboard 1</title><path class="cls-1" d="M605.81251,272.7595c-10.32055-5.68257-25.80139-5.68257-41.28223,0-46.44247,17.04775-103.20554,96.60382-139.32747,193.20769-25.80139,68.19093-46.4425,142.06446-46.4425,198.89024L198.15063,761.46119c-5.16027,0-5.16027,5.6826-5.16027,5.6826h0L2.0601,1238.79773c-5.16027,17.04769,0,39.77809,15.48084,45.46059L316.837,1437.688c15.48084,5.6826,36.12193,0,41.28222-17.04769L549.04949,948.98634h0v-11.3652l-56.76307-215.938c36.12193-34.09549,72.24386-96.60382,103.20554-170.47735,25.80139-62.50838,41.28223-125.01671,41.28223-176.15992Q644.51464,298.33109,605.81251,272.7595ZM435.5234,784.19154c-5.1603,17.04774-25.80138,22.73029-41.28223,17.04774s-20.64111-28.41289-15.48084-45.46063c5.16027-11.36515,10.32055-17.04775,20.64112-17.04775q7.7404,8.5239,15.48081,17.04775c5.1603,5.6826,15.48084,5.6826,20.64109,5.6826S440.68365,772.82639,435.5234,784.19154Zm178.55644-411.3006c-4.976,43.837-14.92794,104.11284-39.80783,158.90913-24.87988,60.27589-54.73576,115.07213-84.5916,142.47025l-9.95194-32.87777c0-16.43888-29.85588-27.39812-39.80783-21.91847l-29.85588,16.43883v-5.47965c4.976-43.837,14.92794-104.11283,39.80783-158.90907,34.83183-87.674,84.5916-158.9091,124.39942-175.348,9.952-5.47962,14.92794-5.47962,19.90389,0C609.10384,301.65585,614.07984,329.054,614.07984,372.89094Z"/><g class="cls-2"><path d="M346.152,427.89551q0,84.38672-22.44726,141.49658-30.1875,79.27149-95.207,79.272-42.57862,0-74.30762-43.47168-5.42432,2.55689-5.419,52.84766,0,110.79713,10.0625,156.83935.76318,4.25538,7.35352,20.457,6.5669,16.18212,6.5791,19.605,0,13.62523-15.48047,13.63818-18.57714,0-25.93066-5.9668-7.36524-5.97289-12.77149-39.20947-4.64355-28.12866-4.64453-44.32422V562.57275q0-29.82641,2.75781-80.12451,2.73927-58.81421,3.43458-80.124.76317-23.01489,0-59.667V282.1377q0-58.815,27.86621-58.81495,13.93212,0,13.93261,11.08106,0,21.31641-3.09668,62.22412Q155.73252,337.54248,155.73789,358h3.0957q17.79786-26.41039,35.60645-53.7002,20.89893-29.82714,51.86035-29.83349,51.84962,0,78.17871,51.14307Q346.13975,366.52392,346.152,427.89551Zm-38.70215,3.40967q0-45.16994-8.51464-77.5669-13.17042-47.72754-42.57227-47.73389-21.67822,0-52.63477,41.76709-27.10252,36.65919-37.92773,75.00977-8.52685,28.9878-13.93262,85.23877-3.10254,40.91456-3.09668,39.21c0,1.70459,2.31055,4.55469,6.93067,8.52393a113.83152,113.83152,0,0,1,9.24023,7.67138q12.33544,19.61793,25.03516,39.63575,12.69873,20.03832,38.13379,20.03125,42.36035,0,63.93066-76.71485Q307.44444,491.83839,307.4498,431.30518Z"/></g><g class="cls-2"><path d="M914.1002,629.93213q0,29.907-41.02344,50.41064-34.07081,16.22169-65.79395,16.23535-20.89892,0-47.99023-11.16113-14.7129-6.87231-47.2168-36.0664Q676.464,617.58545,676.46934,605.5459q0-26.59057,28.63964-24.04h4.64454q1.54248,25.85155,49.53906,55.97754,43.34033,27.56982,69.66308,27.55615,34.05177,0,34.0586-25.63818,0-15.36255-41.79883-42.71241-57.29151-36.71923-78.17773-58.94775Q700.45908,492.471,700.46543,433.49707a180.74744,180.74744,0,0,1,20.89844-84.58643q23.98388-47.82641,60.376-47.84033,26.30421,0,63.47071,26.85059,37.1543,26.84985,43.34668,54.12646,6.186,23.01417,6.19238,53.7002,0,33.24316-10.83691,72.45312a24.196,24.196,0,0,1-16.25489,5.96631q-5.42432,0-17.02832-4.688-11.61181-4.67431-11.61133-9.80224,0,3.416,8.51465-18.75244,6.186-14.48437,6.19239-52.84815,0-91.199-51.86036-91.20556-27.104,0-43.34668,40.15576a165.51612,165.51612,0,0,0-13.93261,65.79345q0,41.87329,44.12011,81.16309,14.69532,13.68531,81.27442,58.96143Q914.10117,612.85059,914.1002,629.93213Z"/></g><g class="cls-2"><path d="M1118.96543,411.02832q-6.20508,5.11451-29.41406,8.52393-25.54248,3.416-29.41309,5.96679-.78076,9.38966-.77441,94.61475,0,66.48633,1.54785,89.501,0,9.38891,3.87012,29.83349,3.86425,20.45729,3.87109,31.53809c0,4.55517-2.58887,9.08349-7.74121,13.63818q-7.74609,6.81227-13.93262,6.81934-15.49218,0-24.76953-34.94825a206.21185,206.21185,0,0,1-6.19238-48.58593V430.6333q-4.53516-4.25537-34.69824,0-24.12891,3.416-24.12891-19.605,0-32.384,62.69824-29.8335l10.0625-154.28173c0-1.70508-.65332-4.39551-1.93555-8.09766q-1.94091-5.53418-1.93457-8.09766,0-5.11449,6.19141-9.80273a20.21851,20.21851,0,0,1,14.707-3.83594q27.08643,2.55762,27.0918,29.834,0,21.3164-5.418,63.92871-5.42431,42.63281-5.41895,63.07666a119.32028,119.32028,0,0,0,1.54786,19.605l42.57226-2.55713q21.66211,0,21.67383,18.75244Q1129.02793,403.36377,1118.96543,411.02832Z"/></g><g class="cls-2"><path d="M122.39512,1276.85742l-10.20117-5.0293,103-253.36035,10.20117,5.0293Z"/></g><g class="cls-2"><path d="M255.51621,962.27637l-10.20215-5.0293,57.17578-140.64062,10.20215,5.02929Z"/></g><g class="cls-2"><path d="M238.17832,1240.56982l-10.20215-5.02929,102.999-253.35987,10.20214,5.0293Z"/></g><g class="cls-2"><path d="M371.72031,1131.30762l-10.20117-5.0293,57.17481-140.64014,10.20117,5.0293Z"/></g></svg>